<svg class="custom-icon" xmlns="http://www.w3.org/2000/svg" viewBox="0 0 100 100" style="height:100px;width:100px">
  <circle class="outer-shape" cx="50" cy="50" r="48" fill="#A5ACBA"/>
  <path class="inner-shape" d="M74.5005 34.714c-1.803.804-3.74 1.3475-5.7735 1.592 2.075-1.2515 3.669-3.233 4.4205-5.5945-1.9425 1.159-4.0935 2-6.384 2.454C64.93 31.2 62.317 29.972 59.4255 29.972c-5.552 0-10.0535 4.527-10.0535 10.1115 0 .7925.0885 1.564.26 2.3045-8.355-.4225-15.7625-4.4475-20.721-10.5655-.865 1.494-1.361 3.231-1.361 5.084 0 3.5085 1.775 6.604 4.4725 8.417-1.648-.052-3.1985-.507-4.553-1.2645-.001.0425-.001.085-.001.1275 0 4.8995 3.4655 8.986 8.0645 9.9155-.844.2315-1.7315.355-2.6485.355-.648 0-1.2775-.0635-1.8915-.1815 1.2795 4.017 4.992 6.941 9.391 7.0225-3.4405 2.712-7.7755 4.3285-12.4855 4.3285-.8115 0-1.6115-.048-2.398-.141 4.449 2.869 9.7335 4.5435 15.41 4.5435 18.491 0 28.603-15.4085 28.603-28.7715 0-.4385-.01-.874-.0295-1.3085 1.964-1.4265 3.6685-3.208 5.0165-5.235z" fill="#f7f7f7"/>
</svg>
