<svg xmlns="http://www.w3.org/2000/svg" xmlns:xlink="http://www.w3.org/1999/xlink"><symbol class="acustom-icon" viewBox="0 0 100 100" style="height:100px;width:100px" id="facebook" xmlns="http://www.w3.org/2000/svg"><circle class="aouter-shape" cx="50" cy="50" r="48" fill="#7a8995"/><path class="ainner-shape" d="M66.334 25.5H33.668c-4.492 0-8.168 3.675-8.168 8.168v32.664c0 4.496 3.676 8.168 8.167 8.168h32.666c4.493 0 8.167-3.672 8.167-8.168V33.67c0-4.493-3.674-8.169-8.166-8.169zm.825 24.5h-7.971v21.438H50V50h-4.428v-7.013H50V38.43c0-6.188 2.67-9.869 9.947-9.869h8.386v7.588h-6.85c-2.032-.004-2.284 1.06-2.284 3.039l-.012 3.797h9.188l-1.216 7.013V50z" fill="#f7f7f7"/></symbol><symbol class="bcustom-icon" viewBox="0 0 100 100" style="height:100px;width:100px" id="instagram" xmlns="http://www.w3.org/2000/svg"><circle class="bouter-shape" cx="50" cy="50" r="48" fill="#7a8995"/><path class="binner-shape" d="M69.1 25.5H30.9a5.389 5.389 0 0 0-5.387 5.39v38.22A5.388 5.388 0 0 0 30.9 74.5h38.2a5.388 5.388 0 0 0 5.387-5.39V30.89A5.39 5.39 0 0 0 69.1 25.5zM49.973 40.592c5.178 0 9.376 4.2 9.376 9.381 0 5.18-4.198 9.38-9.376 9.38s-9.376-4.2-9.376-9.38 4.197-9.381 9.376-9.381zm18.784 26.215c0 1.083-.877 1.96-1.959 1.96H33.17a1.959 1.959 0 0 1-1.958-1.96v-20.53h4.254a15.073 15.073 0 0 0-.452 3.67c0 8.307 6.73 15.04 15.031 15.04s15.032-6.733 15.032-15.04c0-1.266-.158-2.495-.452-3.67h4.131v20.53zm.125-28.245c0 1.083-.877 1.96-1.959 1.96h-5.561a1.959 1.959 0 0 1-1.959-1.96v-5.565c0-1.082.877-1.96 1.958-1.96h5.562c1.083 0 1.959.878 1.959 1.96v5.565z" fill="#f7f7f7"/></symbol><symbol class="ccustom-icon" viewBox="0 0 100 100" style="height:100px;width:100px" id="twitter" xmlns="http://www.w3.org/2000/svg"><circle class="couter-shape" cx="50" cy="50" r="48" fill="#7a8995"/><path class="cinner-shape" d="M74.5 34.714a20.016 20.016 0 0 1-5.773 1.592 10.138 10.138 0 0 0 4.42-5.595 20.061 20.061 0 0 1-6.383 2.454 10.012 10.012 0 0 0-7.338-3.193c-5.553 0-10.054 4.527-10.054 10.111 0 .793.088 1.565.26 2.305-8.355-.422-15.762-4.447-20.721-10.566a10.116 10.116 0 0 0-1.361 5.084c0 3.509 1.775 6.604 4.472 8.417a9.955 9.955 0 0 1-4.553-1.264v.128c0 4.899 3.465 8.985 8.064 9.915a9.996 9.996 0 0 1-4.54.173c1.28 4.017 4.992 6.941 9.391 7.023a20.097 20.097 0 0 1-12.486 4.328c-.811 0-1.611-.048-2.398-.14a28.336 28.336 0 0 0 15.41 4.543c18.491 0 28.603-15.409 28.603-28.772 0-.438-.01-.874-.029-1.308a20.532 20.532 0 0 0 5.016-5.235z" fill="#f7f7f7"/></symbol></svg>