<svg class="custom-icon" xmlns="http://www.w3.org/2000/svg" viewBox="0 0 100 100" style="height:100px;width:100px">
  <circle class="outer-shape" cx="50" cy="50" r="48" fill="#A5ACBA"/>
  <path class="inner-shape" d="M66.3335 25.5h-32.666c-4.492 0-8.1675 3.6755-8.1675 8.168v32.6645c0 4.495 3.6755 8.1675 8.167 8.1675h32.666c4.493.0005 8.167-3.6725 8.167-8.1675v-32.664c0-4.492-3.674-8.168-8.1665-8.1685zM67.159 50h-7.9715v21.4375H50V50h-4.4275v-7.0135H50v-4.555c0-6.189 2.6695-9.8695 9.947-9.8695h8.386v7.588h-6.8495c-2.033-.0035-2.285 1.06-2.285 3.039l-.0115 3.797h9.188l-1.2155 7.0135V50z" fill="#f7f7f7"/>
</svg>
