<svg class="custom-icon" xmlns="http://www.w3.org/2000/svg" viewBox="0 0 100 100" style="height:100px;width:100px">
  <circle class="outer-shape" cx="50" cy="50" r="48" fill="#A5ACBA"/>
  <path class="inner-shape" d="M69.1 25.5H30.9c-2.975 0-5.387 2.4135-5.387 5.3905V69.11c0 2.977 2.412 5.39 5.387 5.39h38.2c2.975 0 5.387-2.413 5.387-5.39V30.8905C74.4865 27.9135 72.0745 25.5 69.1 25.5zM49.973 40.592c5.178 0 9.376 4.2 9.376 9.381 0 5.1805-4.198 9.3805-9.376 9.3805s-9.376-4.2-9.376-9.3805 4.1975-9.381 9.376-9.381zm18.7835 26.2155c0 1.0825-.8765 1.9595-1.9585 1.9595H33.1705c-1.082 0-1.9585-.8775-1.9585-1.9595v-20.53h4.254c-.2945 1.175-.452 2.4035-.452 3.67 0 8.306 6.7295 15.0395 15.0315 15.0395S65.077 58.254 65.077 49.9475c0-1.2665-.1575-2.495-.452-3.67h4.1315v20.53zm.1255-28.2455c0 1.0825-.877 1.9595-1.959 1.9595h-5.5615c-1.082 0-1.9585-.8775-1.9585-1.9595v-5.565c0-1.0825.877-1.9595 1.9585-1.9595h5.5615c1.0825 0 1.959.8775 1.959 1.9595v5.565z" fill="#f7f7f7"/>
</svg>
